<svg xmlns="http://www.w3.org/2000/svg" width="920" height="520" viewBox="0 0 920 520" role="img" aria-labelledby="t1">
  <title id="t1">Vista general: cabecera, filtros, tabla y panel lateral</title>
  <defs>
    <linearGradient id="g" x1="0" y1="0" x2="0" y2="1">
      <stop offset="0" stop-color="#eef2ff"/>
      <stop offset="1" stop-color="#e0e7ff"/>
    </linearGradient>
  </defs>
  <rect width="920" height="520" fill="#f1f5f9"/>
  <!-- header -->
  <rect x="24" y="20" width="872" height="72" rx="12" fill="#ffffff" stroke="#e2e8f0"/>
  <circle cx="60" cy="56" r="22" fill="#fce7f3" stroke="#fbcfe8"/>
  <text x="96" y="52" font-family="system-ui,sans-serif" font-size="18" font-weight="700" fill="#0f172a">The Cupcake Store</text>
  <text x="96" y="70" font-family="system-ui,sans-serif" font-size="11" fill="#64748b">ChartMuseum</text>
  <rect x="780" y="38" width="96" height="36" rx="8" fill="#ffffff" stroke="#e2e8f0"/>
  <text x="808" y="61" font-family="system-ui,sans-serif" font-size="12" fill="#0f172a">Actualizar</text>
  <!-- main card -->
  <rect x="24" y="108" width="600" height="388" rx="12" fill="#ffffff" stroke="#e2e8f0"/>
  <text x="44" y="138" font-family="system-ui,sans-serif" font-size="11" font-weight="600" fill="#64748b">FILTROS</text>
  <rect x="44" y="148" width="140" height="36" rx="8" fill="#f8fafc" stroke="#e2e8f0"/>
  <text x="56" y="171" font-family="system-ui,sans-serif" font-size="12" fill="#0f172a">Chart: TORTILLA</text>
  <rect x="196" y="148" width="300" height="36" rx="8" fill="#f8fafc" stroke="#e2e8f0"/>
  <text x="208" y="171" font-family="system-ui,sans-serif" font-size="11" fill="#94a3b8">Buscar versión o descripción&</text>
  <rect x="508" y="148" width="100" height="36" rx="8" fill="#f1f5f9" stroke="#e2e8f0"/>
  <text x="520" y="171" font-family="system-ui,sans-serif" font-size="11" fill="#64748b">Limpiar</text>
  <text x="44" y="210" font-family="system-ui,sans-serif" font-size="11" fill="#64748b">12 versiones · 3 charts · Mostrando 110</text>
  <!-- table -->
  <rect x="44" y="228" width="560" height="28" fill="#f8fafc"/>
  <text x="56" y="246" font-family="system-ui,sans-serif" font-size="10" font-weight="600" fill="#475569">CHART ˛</text>
  <text x="220" y="246" font-family="system-ui,sans-serif" font-size="10" font-weight="600" fill="#475569">VERSIÓN</text>
  <text x="360" y="246" font-family="system-ui,sans-serif" font-size="10" font-weight="600" fill="#475569">CREADO</text>
  <text x="520" y="246" font-family="system-ui,sans-serif" font-size="10" font-weight="600" fill="#475569">=A</text>
  <line x1="44" y1="256" x2="604" y2="256" stroke="#e2e8f0"/>
  <rect x="44" y="262" width="560" height="32" fill="#ffffff"/>
  <text x="56" y="282" font-family="system-ui,sans-serif" font-size="11" fill="#0f172a">TORTILLA</text>
  <rect x="200" y="268" width="56" height="22" rx="6" fill="url(#g)" stroke="#c7d2fe"/>
  <text x="212" y="283" font-family="ui-monospace,monospace" font-size="10" fill="#312e81">1.2.3</text>
  <text x="360" y="282" font-family="system-ui,sans-serif" font-size="11" fill="#64748b">Hoy · 14:02</text>
  <ellipse cx="532" cy="279" rx="14" ry="9" fill="none" stroke="#2563eb" stroke-width="1.5"/>
  <circle cx="532" cy="279" r="3" fill="none" stroke="#2563eb" stroke-width="1.5"/>
  <line x1="44" y1="294" x2="604" y2="294" stroke="#f1f5f9"/>
  <rect x="44" y="298" width="560" height="32" fill="#fafafa"/>
  <text x="56" y="318" font-family="system-ui,sans-serif" font-size="11" fill="#0f172a">TORTILLA</text>
  <rect x="200" y="304" width="52" height="22" rx="6" fill="url(#g)" stroke="#c7d2fe"/>
  <text x="210" y="319" font-family="ui-monospace,monospace" font-size="10" fill="#312e81">1.2.2</text>
  <text x="360" y="318" font-family="system-ui,sans-serif" font-size="11" fill="#64748b">Ayer · 09:15</text>
  <ellipse cx="532" cy="315" rx="14" ry="9" fill="none" stroke="#94a3b8" stroke-width="1.5"/>
  <circle cx="532" cy="315" r="3" fill="none" stroke="#94a3b8" stroke-width="1.5"/>
  <!-- pagination -->
  <rect x="44" y="420" width="72" height="32" rx="8" fill="#ffffff" stroke="#e2e8f0"/>
  <text x="58" y="440" font-family="system-ui,sans-serif" font-size="11" fill="#0f172a">Anterior</text>
  <text x="140" y="440" font-family="system-ui,sans-serif" font-size="11" fill="#64748b">Página 1 de 2</text>
  <rect x="260" y="420" width="72" height="32" rx="8" fill="#ffffff" stroke="#e2e8f0"/>
  <text x="272" y="440" font-family="system-ui,sans-serif" font-size="11" fill="#0f172a">Siguiente</text>
  <text x="380" y="440" font-family="system-ui,sans-serif" font-size="11" fill="#64748b">Por página: 10</text>
  <!-- sidebar -->
  <rect x="640" y="108" width="256" height="388" rx="12" fill="#ffffff" stroke="#e2e8f0"/>
  <text x="660" y="142" font-family="system-ui,sans-serif" font-size="13" font-weight="700" fill="#0f172a">Últimas publicaciones</text>
  <text x="660" y="168" font-family="system-ui,sans-serif" font-size="10" fill="#64748b">Por fecha created · tortilla primero</text>
  <rect x="660" y="186" width="216" height="72" rx="10" fill="#f8fafc" stroke="#e2e8f0"/>
  <text x="672" y="208" font-family="system-ui,sans-serif" font-size="12" font-weight="600" fill="#0f172a">TORTILLA</text>
  <rect x="780" y="196" width="44" height="20" rx="6" fill="url(#g)" stroke="#c7d2fe"/>
  <text x="790" y="210" font-family="ui-monospace,monospace" font-size="9" fill="#312e81">1.2.3</text>
  <text x="672" y="232" font-family="system-ui,sans-serif" font-size="10" fill="#64748b">Hoy · 14:02</text>
  <text x="672" y="248" font-family="system-ui,sans-serif" font-size="9" fill="#94a3b8">Anterior por fecha · 1.2.2</text>
  <rect x="660" y="268" width="216" height="72" rx="10" fill="#ffffff" stroke="#e2e8f0"/>
  <text x="672" y="290" font-family="system-ui,sans-serif" font-size="12" font-weight="600" fill="#0f172a">GOFRE</text>
  <rect x="780" y="278" width="40" height="20" rx="6" fill="url(#g)" stroke="#c7d2fe"/>
  <text x="672" y="314" font-family="system-ui,sans-serif" font-size="10" fill="#64748b">Lun 14 abr · 11:00</text>
</svg>
